<svg xmlns="http://www.w3.org/2000/svg" viewBox="0 0 24 24"><defs><style>.a{fill:none;stroke:#000;stroke-linecap:round;stroke-linejoin:round;stroke-width:1.5px;fill-rule:evenodd;}</style></defs><path class="a" d="M18.57143,18A3.29506,3.29506,0,0,0,22,14.85714a3.2097,3.2097,0,0,0-2.61415-3.04991,3.56261,3.56261,0,0,0-6.20027,0,3.2097,3.2097,0,0,0-2.61415,3.04991A3.29506,3.29506,0,0,0,14,18a3.6565,3.6565,0,0,0,1.29109-.23657,2.20916,2.20916,0,0,0,1.98925,0A3.65573,3.65573,0,0,0,18.57143,18"/><path class="a" d="M9.778,3.63615A2.9396,2.9396,0,0,0,7.14286,2.1,2.93961,2.93961,0,0,0,4.50774,3.63615a2.72824,2.72824,0,0,0-2.222,2.59242A2.8008,2.8008,0,0,0,5.2,8.9a3.1077,3.1077,0,0,0,1.09742-.20109,1.87776,1.87776,0,0,0,1.69087,0A3.1072,3.1072,0,0,0,9.08571,8.9,2.8008,2.8008,0,0,0,12,6.22857,2.72824,2.72824,0,0,0,9.778,3.63615Z"/><path class="a" d="M18.74182,17.99489A10.47315,10.47315,0,0,1,12,21a9,9,0,0,1-9-9,9.99833,9.99833,0,0,1,.64622-3.51346"/><path class="a" d="M9.60182,3.344A10.94785,10.94785,0,0,1,12,3a9,9,0,0,1,9,9c0,.169.00919.47685,0,.64354"/></svg>