<svg xmlns="http://www.w3.org/2000/svg" viewBox="0 0 24 24"><defs><style>.a{fill:none;stroke:#000;stroke-linecap:round;stroke-linejoin:round;stroke-width:1.5px;fill-rule:evenodd;}</style></defs><path class="a" d="M17.42523,8.16266A6.05212,6.05212,0,0,0,12,5,6.05212,6.05212,0,0,0,6.57477,8.16266,5.617,5.617,0,0,0,2,13.5,5.76635,5.76635,0,0,0,8,19a6.39862,6.39862,0,0,0,2.2594-.414,3.866,3.866,0,0,0,3.4812,0A6.39753,6.39753,0,0,0,16,19a5.76635,5.76635,0,0,0,6-5.5A5.617,5.617,0,0,0,17.42523,8.16266Z"/></svg>