<svg xmlns="http://www.w3.org/2000/svg" viewBox="0 0 24 24"><defs><style>.a{fill:none;stroke:#000;stroke-linecap:round;stroke-linejoin:bevel;stroke-width:1.5px;}</style></defs><path class="a" d="M18.73122,10.62475a2.48475,2.48475,0,0,0,.53756,0c1.77073-.19286,2.73266-2.425,1.88914-4.16572L19.27468,2.57267a.29808.29808,0,0,0-.54936,0L16.84208,6.459C15.99856,8.19978,16.96049,10.43189,18.73122,10.62475Z"/><path class="a" d="M4.73122,10.62475a2.48475,2.48475,0,0,0,.53756,0c1.77073-.19286,2.73266-2.425,1.88914-4.16572L5.27468,2.57267a.29808.29808,0,0,0-.54936,0L2.84208,6.459C1.99856,8.19978,2.96049,10.43189,4.73122,10.62475Z"/><path class="a" d="M11.87914,21.58981a3.37941,3.37941,0,0,0,.73112,0c2.40833-.26231,3.71664-3.29817,2.56938-5.66573l-2.56135-5.28576a.40542.40542,0,0,0-.74718,0L9.30976,15.92408C8.1625,18.29164,9.4708,21.3275,11.87914,21.58981Z"/></svg>