<svg xmlns="http://www.w3.org/2000/svg" viewBox="0 0 24 24"><defs><style>.a,.b{fill:none;stroke:#000;stroke-linecap:round;stroke-linejoin:round;stroke-width:1.5px;}.a{fill-rule:evenodd;}</style></defs><polyline class="a" points="19.5 12 16.5 17 19.5 17 17 22"/><path class="a" d="M21.68017,13.27635A5.07977,5.07977,0,0,0,22,11.5a5.617,5.617,0,0,0-4.57477-5.33734A6.05212,6.05212,0,0,0,12,3,6.05212,6.05212,0,0,0,6.57477,6.16266,5.617,5.617,0,0,0,2,11.5,5.76635,5.76635,0,0,0,8,17a6.39862,6.39862,0,0,0,2.2594-.414,3.866,3.866,0,0,0,3.4812,0"/><line class="b" x1="12" y1="20" x2="11" y2="22"/><line class="b" x1="8" y1="20" x2="7" y2="22"/><line class="b" x1="4" y1="20" x2="3" y2="22"/></svg>